{
    "asset" : {
        "generator" : "Khronos glTF Blender I/O v1.3.48",
        "version" : "2.0"
    },
    "scene" : 0,
    "scenes" : [
        {
            "name" : "Scene",
            "nodes" : [
                0,
                1
            ]
        }
    ],
    "nodes" : [
        {
            "mesh" : 0,
            "name" : "Donut.original"
        },
        {
            "mesh" : 1,
            "name" : "Icing.original"
        }
    ],
    "meshes" : [
        {
            "name" : "Torus.002",
            "primitives" : [
                {
                    "attributes" : {
                        "POSITION" : 0,
                        "NORMAL" : 1,
                        "TEXCOORD_0" : 2
                    },
                    "indices" : 3
                }
            ]
        },
        {
            "name" : "Torus.003",
            "primitives" : [
                {
                    "attributes" : {
                        "POSITION" : 4,
                        "NORMAL" : 5,
                        "TEXCOORD_0" : 6
                    },
                    "indices" : 7
                }
            ]
        }
    ],
    "accessors" : [
        {
            "bufferView" : 0,
            "componentType" : 5126,
            "count" : 377,
            "max" : [
                0.07723703980445862,
                0.027793655171990395,
                0.07657184451818466
            ],
            "min" : [
                -0.07634236663579941,
                -0.026000000536441803,
                -0.07182011753320694
            ],
            "type" : "VEC3"
        },
        {
            "bufferView" : 1,
            "componentType" : 5126,
            "count" : 377,
            "type" : "VEC3"
        },
        {
            "bufferView" : 2,
            "componentType" : 5126,
            "count" : 377,
            "type" : "VEC2"
        },
        {
            "bufferView" : 3,
            "componentType" : 5123,
            "count" : 2016,
            "type" : "SCALAR"
        },
        {
            "bufferView" : 4,
            "componentType" : 5126,
            "count" : 533,
            "max" : [
                0.07388883084058762,
                0.02779364585876465,
                0.0740135908126831
            ],
            "min" : [
                -0.07439549267292023,
                -0.008869651705026627,
                -0.0680927187204361
            ],
            "type" : "VEC3"
        },
        {
            "bufferView" : 5,
            "componentType" : 5126,
            "count" : 533,
            "type" : "VEC3"
        },
        {
            "bufferView" : 6,
            "componentType" : 5126,
            "count" : 533,
            "type" : "VEC2"
        },
        {
            "bufferView" : 7,
            "componentType" : 5123,
            "count" : 2760,
            "type" : "SCALAR"
        }
    ],
    "bufferViews" : [
        {
            "buffer" : 0,
            "byteLength" : 4524,
            "byteOffset" : 0
        },
        {
            "buffer" : 0,
            "byteLength" : 4524,
            "byteOffset" : 4524
        },
        {
            "buffer" : 0,
            "byteLength" : 3016,
            "byteOffset" : 9048
        },
        {
            "buffer" : 0,
            "byteLength" : 4032,
            "byteOffset" : 12064
        },
        {
            "buffer" : 0,
            "byteLength" : 6396,
            "byteOffset" : 16096
        },
        {
            "buffer" : 0,
            "byteLength" : 6396,
            "byteOffset" : 22492
        },
        {
            "buffer" : 0,
            "byteLength" : 4264,
            "byteOffset" : 28888
        },
        {
            "buffer" : 0,
            "byteLength" : 5520,
            "byteOffset" : 33152
        }
    ],
    "buffers" : [
        {
            "byteLength" : 38672,
            "uri" : "data:application/octet-stream;base64,"
        }
    ]
}
